<svg xmlns="http://www.w3.org/2000/svg" xmlns:xlink="http://www.w3.org/1999/xlink" style="margin:auto;background:#f1f2f3;display:block;z-index:1;position:relative" width="1920" height="941" preserveAspectRatio="xMidYMid" viewBox="0 0 1920 941">
<g transform="translate(960,470.5) scale(1,1) translate(-960,-470.5)"><linearGradient id="lg-0.5551110955915393" x1="0" x2="1" y1="0" y2="0">
  <stop stop-color="#4e4eb7" offset="0"></stop>
  <stop stop-color="#b280f4" offset="1"></stop>
</linearGradient><path d="M 1665 471 C 1665 656 1301 922 1125 979 C 949 1036 583 973 474 824 C 365 675 427 311 536 162 C 645 13 945 -83 1121 -26 C 1297 31 1665 286 1665 471" fill="url(#lg-0.5551110955915393)" opacity="0.4">
  <animate attributeName="d" dur="10s" repeatCount="indefinite" keyTimes="0;0.3333333333333333;0.6666666666666666;1" calcmod="spline" keySplines="0.3 0.1 0.7 0.9;0.3 0.1 0.7 0.9;0.3 0.1 0.7 0.9" begin="-4s" values="M 1665 471 C 1665 656 1301 922 1125 979 C 949 1036 583 973 474 824 C 365 675 427 311 536 162 C 645 13 945 -83 1121 -26 C 1297 31 1665 286 1665 471;M 1556 471 C 1556 642 1242 784 1079 837 C 916 890 564 970 463 832 C 362 694 375 256 475 118 C 575 -20 936 -10 1099 43 C 1262 96 1556 300 1556 471;M 1543 471 C 1543 650 1263 822 1092 877 C 921 932 628 933 523 788 C 418 643 390 278 496 133 C 602 -12 912 37 1083 93 C 1254 149 1543 292 1543 471;M 1665 471 C 1665 656 1301 922 1125 979 C 949 1036 583 973 474 824 C 365 675 427 311 536 162 C 645 13 945 -83 1121 -26 C 1297 31 1665 286 1665 471"></animate>
</path><path d="M 1487 471 C 1487 639 1279 908 1119 960 C 959 1012 653 901 554 765 C 455 629 424 289 523 153 C 622 17 959 -70 1119 -18 C 1279 34 1487 303 1487 471" fill="url(#lg-0.5551110955915393)" opacity="0.4">
  <animate attributeName="d" dur="10s" repeatCount="indefinite" keyTimes="0;0.3333333333333333;0.6666666666666666;1" calcmod="spline" keySplines="0.3 0.1 0.7 0.9;0.3 0.1 0.7 0.9;0.3 0.1 0.7 0.9" begin="-4s" values="M 1487 471 C 1487 639 1279 908 1119 960 C 959 1012 653 901 554 765 C 455 629 424 289 523 153 C 622 17 959 -70 1119 -18 C 1279 34 1487 303 1487 471;M 1512 471 C 1512 640 1254 827 1093 879 C 932 931 552 977 452 840 C 352 703 357 242 457 105 C 557 -32 943 -26 1104 26 C 1265 78 1512 302 1512 471;M 1600 471 C 1600 644 1248 797 1083 850 C 918 903 600 947 498 807 C 396 667 355 245 457 105 C 559 -35 923 23 1088 77 C 1253 131 1600 298 1600 471;M 1487 471 C 1487 639 1279 908 1119 960 C 959 1012 653 901 554 765 C 455 629 424 289 523 153 C 622 17 959 -70 1119 -18 C 1279 34 1487 303 1487 471"></animate>
</path><path d="M 1463 471 C 1463 625 1229 803 1083 850 C 937 897 661 877 571 753 C 481 629 488 317 578 193 C 668 69 926 78 1072 126 C 1218 174 1463 317 1463 471" fill="url(#lg-0.5551110955915393)" opacity="0.4">
  <animate attributeName="d" dur="10s" repeatCount="indefinite" keyTimes="0;0.3333333333333333;0.6666666666666666;1" calcmod="spline" keySplines="0.3 0.1 0.7 0.9;0.3 0.1 0.7 0.9;0.3 0.1 0.7 0.9" begin="-4s" values="M 1463 471 C 1463 625 1229 803 1083 850 C 937 897 661 877 571 753 C 481 629 488 317 578 193 C 668 69 926 78 1072 126 C 1218 174 1463 317 1463 471;M 1541 471 C 1541 639 1271 884 1111 936 C 951 988 654 901 555 765 C 456 629 408 278 507 142 C 606 6 951 -48 1111 4 C 1271 56 1541 303 1541 471;M 1631 471 C 1631 641 1257 839 1096 891 C 935 943 638 914 538 777 C 438 640 379 258 479 121 C 579 -16 938 -10 1099 42 C 1260 94 1631 301 1631 471;M 1463 471 C 1463 625 1229 803 1083 850 C 937 897 661 877 571 753 C 481 629 488 317 578 193 C 668 69 926 78 1072 126 C 1218 174 1463 317 1463 471"></animate>
</path><path d="M 1598 471 C 1598 645 1267 852 1101 906 C 935 960 561 975 459 834 C 357 693 432 302 534 161 C 636 20 913 54 1078 108 C 1243 162 1598 297 1598 471" fill="url(#lg-0.5551110955915393)" opacity="0.4">
  <animate attributeName="d" dur="10s" repeatCount="indefinite" keyTimes="0;0.3333333333333333;0.6666666666666666;1" calcmod="spline" keySplines="0.3 0.1 0.7 0.9;0.3 0.1 0.7 0.9;0.3 0.1 0.7 0.9" begin="-4s" values="M 1598 471 C 1598 645 1267 852 1101 906 C 935 960 561 975 459 834 C 357 693 432 302 534 161 C 636 20 913 54 1078 108 C 1243 162 1598 297 1598 471;M 1611 471 C 1611 655 1308 946 1133 1003 C 958 1060 546 998 438 849 C 330 700 360 262 468 113 C 576 -36 915 13 1090 70 C 1265 127 1611 287 1611 471;M 1600 471 C 1600 642 1248 805 1086 858 C 924 911 552 977 452 839 C 352 701 398 273 498 135 C 598 -3 948 -43 1110 10 C 1272 63 1600 300 1600 471;M 1598 471 C 1598 645 1267 852 1101 906 C 935 960 561 975 459 834 C 357 693 432 302 534 161 C 636 20 913 54 1078 108 C 1243 162 1598 297 1598 471"></animate>
</path><path d="M 1693 471 C 1693 657 1286 870 1109 928 C 932 986 605 958 496 808 C 387 658 411 301 520 151 C 629 1 926 -26 1103 32 C 1280 90 1693 285 1693 471" fill="url(#lg-0.5551110955915393)" opacity="0.4">
  <animate attributeName="d" dur="10s" repeatCount="indefinite" keyTimes="0;0.3333333333333333;0.6666666666666666;1" calcmod="spline" keySplines="0.3 0.1 0.7 0.9;0.3 0.1 0.7 0.9;0.3 0.1 0.7 0.9" begin="-4s" values="M 1693 471 C 1693 657 1286 870 1109 928 C 932 986 605 958 496 808 C 387 658 411 301 520 151 C 629 1 926 -26 1103 32 C 1280 90 1693 285 1693 471;M 1593 471 C 1593 634 1241 809 1086 859 C 931 909 609 928 513 796 C 417 664 389 257 485 125 C 581 -7 959 -53 1114 -3 C 1269 47 1593 308 1593 471;M 1629 471 C 1629 649 1258 809 1088 864 C 918 919 594 957 489 813 C 384 669 397 281 502 137 C 607 -7 930 -16 1100 39 C 1270 94 1629 293 1629 471;M 1693 471 C 1693 657 1286 870 1109 928 C 932 986 605 958 496 808 C 387 658 411 301 520 151 C 629 1 926 -26 1103 32 C 1280 90 1693 285 1693 471"></animate>
</path></g>
</svg>